<svg width="30" height="32"  viewBox="0 0 23 22" fill="#35862E" xmlns="http://www.w3.org/2000/svg">
<path d="M1 1H4.80952L7.3619 13.7524C7.44899 14.1909 7.68753 14.5847 8.03576 14.865C8.38398 15.1454 8.81971 15.2943 9.26667 15.2857H18.5238C18.9708 15.2943 19.4065 15.1454 19.7547 14.865C20.1029 14.5847 20.3415 14.1909 20.4286 13.7524L21.9524 5.7619H5.7619M9.57143 20.0476C9.57143 20.5736 9.14503 21 8.61905 21C8.09306 21 7.66667 20.5736 7.66667 20.0476C7.66667 19.5216 8.09306 19.0952 8.61905 19.0952C9.14503 19.0952 9.57143 19.5216 9.57143 20.0476ZM20.0476 20.0476C20.0476 20.5736 19.6212 21 19.0952 21C18.5693 21 18.1429 20.5736 18.1429 20.0476C18.1429 19.5216 18.5693 19.0952 19.0952 19.0952C19.6212 19.0952 20.0476 19.5216 20.0476 20.0476Z" stroke="white" stroke-width="2" stroke-linecap="round" stroke-linejoin="round"/>
</svg>
